<?xml version="1.0" encoding="UTF-8"?>
<svg width="70px" height="32px" viewBox="0 0 70 32" version="1.1" xmlns="http://www.w3.org/2000/svg" xmlns:xlink="http://www.w3.org/1999/xlink">
    <!-- Generator: Sketch 48.1 (47250) - http://www.bohemiancoding.com/sketch -->
    <title>logo</title>
    <desc>Created with Sketch.</desc>
    <defs></defs>
    <g id="header" stroke="none" stroke-width="1" fill="none" fill-rule="evenodd" transform="translate(-587.000000, -44.000000)">
        <g id="logo">
            <g transform="translate(587.000000, 44.000000)">
                <g>
                    <path d="M9.40400041,7.34400113 C12.4040155,7.34400113 14.7079926,8.05799401 16.3160007,9.48600121 C17.9240088,10.9140084 18.7280008,13.067987 18.7280008,15.9480015 L18.7280008,27.0000019 L13.4720006,27.0000019 L13.4720006,24.5880018 C12.4159953,26.3880109 10.4480149,27.2880019 7.56800034,27.2880019 C6.07999284,27.2880019 4.79000569,27.0360044 3.69800019,26.5320019 C2.60599468,26.0279993 1.77200299,25.3320063 1.19600009,24.4440018 C0.619997184,23.5559973 0.332000053,22.5480074 0.332000053,21.4200017 C0.332000053,19.6199926 1.0099933,18.2040067 2.36600013,17.1720015 C3.72200697,16.1399963 5.81598611,15.6240015 8.64800038,15.6240015 L13.1120006,15.6240015 C13.1120006,14.3999953 12.7400043,13.4580047 11.9960005,12.7980013 C11.2519968,12.137998 10.1360079,11.8080013 8.64800038,11.8080013 C7.61599518,11.8080013 6.60200528,11.9699997 5.60600026,12.2940013 C4.60999524,12.618003 3.76400367,13.0559986 3.06800016,13.6080014 L1.05200008,9.68400122 C2.1080054,8.93999747 3.37399279,8.36400321 4.85000023,7.95600115 C6.32600767,7.54799909 7.84399255,7.34400113 9.40400041,7.34400113 Z M8.9720004,23.5080018 C9.93200523,23.5080018 10.7839967,23.286004 11.5280005,22.8420017 C12.2720042,22.3979995 12.799999,21.744006 13.1120006,20.8800017 L13.1120006,18.9000016 L9.26000041,18.9000016 C6.9559888,18.9000016 5.80400027,19.6559941 5.80400027,21.1680017 C5.80400027,21.8880053 6.08599746,22.4579996 6.6500003,22.8780017 C7.21400315,23.2980039 7.98799544,23.5080018 8.9720004,23.5080018 Z" id="a" fill="#FFFFFF"></path>
                    <path d="M43.5080018,19.4040016 L40.8080017,22.0680017 L40.8080017,27.0000019 L35.1920014,27.0000019 L35.1920014,0.288000846 L40.8080017,0.288000846 L40.8080017,15.4080014 L49.016002,7.63200114 L55.7120023,7.63200114 L47.6480019,15.8400015 L56.4320023,27.0000019 L49.628002,27.0000019 L43.5080018,19.4040016 Z M69.9920029,1.80000091 L69.9920029,27.0000019 L64.1600026,27.0000019 L64.1600026,6.48000109 L59.1200024,6.48000109 L59.1200024,1.80000091 L69.9920029,1.80000091 Z" id="k1" fill="#8C8C8C"></path>
                    <circle id="Oval" fill="#FFFFFF" cx="23.000001" cy="28.4000015" r="3.60000014"></circle>
                </g>
            </g>
        </g>
    </g>
</svg>