<?xml version="1.0" encoding="utf-8"?>
<!-- Svg Vector Icons : http://www.onlinewebfonts.com/icon -->
<!DOCTYPE svg PUBLIC "-//W3C//DTD SVG 1.1//EN" "http://www.w3.org/Graphics/SVG/1.1/DTD/svg11.dtd">
<svg version="1.1" xmlns="http://www.w3.org/2000/svg" xmlns:xlink="http://www.w3.org/1999/xlink" x="0px" y="0px" viewBox="0 0 1000 1000" enable-background="new 0 0 1000 1000" xml:space="preserve">
<metadata> Svg Vector Icons : http://www.onlinewebfonts.com/icon </metadata>
<g><path d="M685.3,501.3l-276.4,181c-3.3,2.2-7.1,3.3-11,3.3c-3.4,0-6.7-0.8-9.8-2.5c-6.5-3.7-10.6-10.7-10.6-18.3v-362c0-7.6,4.1-14.7,10.6-18.3c6.6-3.7,14.5-3.4,20.8,0.7l276.4,181c5.9,3.8,9.4,10.5,9.4,17.6C694.7,490.8,691.2,497.5,685.3,501.3
M829.2,144.8H170.8C82.2,144.8,10,218.7,10,309.4v381.2c0,90.8,72.2,164.6,160.8,164.6h658.4c88.6,0,160.8-73.8,160.8-164.6V309.4C990,218.7,917.8,144.8,829.2,144.8"/></g>
</svg>

